<svg width="32" height="32" viewBox="0 0 32 32" fill="none" xmlns="http://www.w3.org/2000/svg">
<circle opacity="0.15" cx="16" cy="16" r="16" fill="#2684FF"/>
<path fill-rule="evenodd" clip-rule="evenodd" d="M21.3182 9.22727C22.6738 9.22727 23.7727 10.3262 23.7727 11.6818V18.2273C23.7727 19.5829 22.6738 20.6818 21.3182 20.6818H13.8523L11.0909 23.1364V20.6818H10.6818C9.32621 20.6818 8.22727 19.5829 8.22727 18.2273V11.6818C8.22727 10.3262 9.32621 9.22727 10.6818 9.22727H21.3182ZM21.3182 8H10.6818C8.64841 8 7 9.64841 7 11.6818V18.2273C6.99904 19.9462 8.18766 21.4371 9.86364 21.8191V23.1364C9.863 23.6206 10.1472 24.06 10.5891 24.258C11.0311 24.456 11.5481 24.3756 11.9091 24.0527L14.3227 21.9091H21.3182C23.3516 21.9091 25 20.2607 25 18.2273V11.6818C25 9.64841 23.3516 8 21.3182 8V8Z" fill="#0065FF"/>
<path fill-rule="evenodd" clip-rule="evenodd" d="M16 15.5682C16.3389 15.5682 16.6136 15.2934 16.6136 14.9545C16.6136 14.6156 16.3389 14.3409 16 14.3409C15.6611 14.3409 15.3864 14.6156 15.3864 14.9545C15.3864 15.2934 15.6611 15.5682 16 15.5682Z" fill="#0065FF"/>
<path fill-rule="evenodd" clip-rule="evenodd" d="M20.0909 15.5682C20.4298 15.5682 20.7046 15.2934 20.7046 14.9545C20.7046 14.6156 20.4298 14.3409 20.0909 14.3409C19.752 14.3409 19.4773 14.6156 19.4773 14.9545C19.4773 15.2934 19.752 15.5682 20.0909 15.5682Z" fill="#0065FF"/>
<path fill-rule="evenodd" clip-rule="evenodd" d="M11.9582 15.5682C12.2971 15.5682 12.5718 15.2934 12.5718 14.9545C12.5718 14.6156 12.2971 14.3409 11.9582 14.3409C11.6193 14.3409 11.3445 14.6156 11.3445 14.9545C11.3445 15.2934 11.6193 15.5682 11.9582 15.5682Z" fill="#0065FF"/>
</svg>

