<svg width="32" height="32" viewBox="0 0 32 32" fill="none" xmlns="http://www.w3.org/2000/svg">
<circle opacity="0.15" cx="16" cy="16" r="16" fill="#FFAB00"/>
<path fill-rule="evenodd" clip-rule="evenodd" d="M22.3997 9.82701H21.3513V8.77858C21.3513 8.63383 21.2339 8.51648 21.0892 8.51648C20.9444 8.51648 20.8271 8.63383 20.8271 8.77858V9.82701H19.7786C19.6339 9.82701 19.5165 9.94435 19.5165 10.0891C19.5165 10.2339 19.6339 10.3512 19.7786 10.3512H20.8271V11.3996C20.8271 11.5444 20.9444 11.6617 21.0892 11.6617C21.2339 11.6617 21.3513 11.5444 21.3513 11.3996V10.3512H22.3997C22.5445 10.3512 22.6618 10.2339 22.6618 10.0891C22.6618 9.94435 22.5445 9.82701 22.3997 9.82701Z" fill="#FFAB00"/>
<path fill-rule="evenodd" clip-rule="evenodd" d="M14.8424 19.0105C16.6814 19.0105 18.1801 17.2148 18.1801 15.0053C18.1801 12.7957 16.6814 11 14.8424 11C13.0033 11 11.5046 12.7957 11.5046 15.0053C11.5046 17.2148 13.0066 19.0105 14.8424 19.0105ZM14.8423 12.0013C16.134 12.0013 17.1787 13.3364 17.1787 15.0053C17.1787 16.6741 16.134 18.0092 14.8423 18.0092C13.5506 18.0092 12.5059 16.6741 12.5059 15.0053C12.5059 13.3364 13.5506 12.0013 14.8423 12.0013Z" fill="#FDAF0D"/>
<path fill-rule="evenodd" clip-rule="evenodd" d="M17.8963 18.6767C17.6198 18.6491 17.3733 18.8508 17.3456 19.1273C17.318 19.4038 17.5197 19.6504 17.7962 19.678C19.3489 19.8605 20.5519 21.1223 20.66 22.682H9.02468C9.14299 21.1269 10.3407 19.8705 11.8884 19.678C12.165 19.6504 12.3667 19.4038 12.339 19.1273C12.3114 18.8508 12.0648 18.6491 11.7883 18.6767C11.7516 18.6767 8 19.104 8 23.1793C8 23.4558 8.22415 23.68 8.50066 23.68H21.184C21.4605 23.68 21.6847 23.4558 21.6847 23.1793C21.6847 19.104 17.9331 18.6767 17.8963 18.6767Z" fill="#FFAB00"/>
</svg>

