<svg width="32" height="32" viewBox="0 0 32 32" fill="none" xmlns="http://www.w3.org/2000/svg">
<circle opacity="0.15" cx="16" cy="16" r="16" fill="#E42727"/>
<path fill-rule="evenodd" clip-rule="evenodd" d="M16.0096 12.16C13.8888 12.16 12.1696 13.8792 12.1696 16C12.1696 18.1207 13.8888 19.84 16.0096 19.84C18.1304 19.84 19.8496 18.1207 19.8496 16C19.8496 13.8792 18.1304 12.16 16.0096 12.16ZM16.0096 18.4C14.6841 18.4 13.6096 17.3255 13.6096 16C13.6096 14.6745 14.6841 13.6 16.0096 13.6C17.3351 13.6 18.4096 14.6745 18.4096 16C18.4096 17.3255 17.3351 18.4 16.0096 18.4Z" fill="#FF7474"/>
<path fill-rule="evenodd" clip-rule="evenodd" d="M25.1296 13.12H23.6416C23.5808 12.9568 23.5136 12.7968 23.44 12.64L24.4912 11.5888C25.0527 11.0266 25.0527 10.1158 24.4912 9.5536L22.456 7.5184C21.8938 6.95689 20.983 6.95689 20.4208 7.5184L19.3696 8.5696C19.2128 8.4992 19.0528 8.432 18.8896 8.368V6.88C18.8896 6.08471 18.2449 5.44 17.4496 5.44H14.5696C13.7743 5.44 13.1296 6.08471 13.1296 6.88V8.368C12.9664 8.4288 12.8064 8.496 12.6496 8.5696L11.5984 7.5184C11.0362 6.95689 10.1254 6.95689 9.5632 7.5184L7.528 9.5536C6.96649 10.1158 6.96649 11.0266 7.528 11.5888L8.5696 12.64C8.4992 12.7968 8.432 12.9568 8.368 13.12H6.88C6.08471 13.12 5.44 13.7647 5.44 14.56V17.44C5.44 18.2353 6.08471 18.88 6.88 18.88H8.368C8.4288 19.0432 8.496 19.2032 8.5696 19.36L7.5184 20.4112C6.95689 20.9734 6.95689 21.8842 7.5184 22.4464L9.5536 24.4816C10.1158 25.0431 11.0266 25.0431 11.5888 24.4816L12.64 23.4304C12.7968 23.5008 12.9568 23.568 13.12 23.632V25.12C13.12 25.9153 13.7647 26.56 14.56 26.56H17.44C18.2353 26.56 18.88 25.9153 18.88 25.12V23.632C19.0432 23.5712 19.2032 23.504 19.36 23.4304L20.4112 24.4816C20.9734 25.0431 21.8842 25.0431 22.4464 24.4816L24.4816 22.4464C25.0431 21.8842 25.0431 20.9734 24.4816 20.4112L23.4496 19.36C23.52 19.2032 23.5872 19.0432 23.6512 18.88H25.1392C25.9345 18.88 26.5792 18.2353 26.5792 17.44V14.56C26.5792 14.1764 26.4262 13.8087 26.154 13.5384C25.8819 13.268 25.5132 13.1174 25.1296 13.12ZM25.1296 17.44H22.5712C22.4007 18.2145 22.0935 18.9525 21.664 19.6192L23.4736 21.4288L21.4384 23.464L19.6096 21.6544C18.9429 22.0839 18.2049 22.3911 17.4304 22.5616V25.12H14.5504V22.5616C13.7758 22.3911 13.0379 22.0839 12.3712 21.6544L10.5616 23.464L8.52639 21.4288L10.336 19.6192C9.90648 18.9525 9.59927 18.2145 9.42879 17.44H6.88959V14.56H9.44799C9.61847 13.7855 9.92568 13.0475 10.3552 12.3808L8.54559 10.5712L10.5808 8.536L12.3904 10.3456C13.0571 9.91609 13.795 9.60888 14.5696 9.4384V6.88H17.4496V9.4384C18.2241 9.60888 18.9621 9.91609 19.6288 10.3456L21.4384 8.536L23.4736 10.5712L21.664 12.3808C22.0935 13.0475 22.4007 13.7855 22.5712 14.56H25.1296V17.44Z" fill="#FF7474"/>
</svg>

