<svg width="100%" height="100%" viewBox="0 0 139 40" fill="none" xmlns="http://www.w3.org/2000/svg">
<path d="M0 1.7704H9.19752C10.872 1.7704 12.2511 2.004 13.3346 2.47119C14.4181 2.91379 15.2676 3.49163 15.8833 4.2047C16.5235 4.89319 16.9668 5.68004 17.213 6.56524C17.4593 7.42585 17.5824 8.26187 17.5824 9.07331C17.5824 9.90933 17.4347 10.7208 17.1392 11.5076C16.8437 12.2699 16.4127 12.9707 15.8463 13.61C15.3046 14.2247 14.6274 14.7533 13.8148 15.1959C13.0267 15.614 12.1402 15.8721 11.1552 15.9705L18.5797 27.8838H14.1472L7.49838 16.3762H3.54603V27.8838H0V1.7704ZM3.54603 13.278H8.2002C8.88971 13.278 9.5669 13.2288 10.2318 13.1305C10.9213 13.0075 11.5246 12.7985 12.0417 12.5035C12.5835 12.2084 13.0144 11.7904 13.3346 11.2494C13.6547 10.6839 13.8148 9.95851 13.8148 9.07331C13.8148 8.18811 13.6547 7.47503 13.3346 6.93407C13.0144 6.36853 12.5835 5.93822 12.0417 5.64315C11.5246 5.34809 10.9213 5.15138 10.2318 5.05302C9.5669 4.93008 8.88971 4.86861 8.2002 4.86861H3.54603V13.278Z" fill="#0065FF"/>
<path d="M24.2433 20.3596C24.2433 21.1219 24.4034 21.8227 24.7235 22.462C25.0683 23.0767 25.5115 23.6054 26.0533 24.048C26.5951 24.4906 27.223 24.8348 27.9371 25.0807C28.6513 25.3266 29.39 25.4495 30.1534 25.4495C31.1877 25.4495 32.0865 25.2159 32.8499 24.7487C33.6132 24.257 34.3151 23.6177 34.9553 22.8308L37.4671 24.7487C35.6202 27.1339 33.0346 28.3264 29.7101 28.3264C28.3311 28.3264 27.0752 28.0928 25.9425 27.6256C24.8344 27.1585 23.8863 26.5191 23.0983 25.7077C22.3349 24.8717 21.7439 23.9004 21.3253 22.7939C20.9066 21.6628 20.6973 20.4457 20.6973 19.1425C20.6973 17.8393 20.9189 16.6344 21.3622 15.5279C21.8301 14.3968 22.458 13.4255 23.246 12.6141C24.0587 11.7781 25.019 11.1265 26.1272 10.6593C27.2353 10.1921 28.4419 9.95851 29.7471 9.95851C31.2985 9.95851 32.6036 10.229 33.6625 10.7699C34.746 11.3109 35.6325 12.024 36.322 12.9092C37.0115 13.7698 37.504 14.7533 37.7995 15.8598C38.1197 16.9418 38.2797 18.0483 38.2797 19.1794V20.3596H24.2433ZM34.7337 17.704C34.7091 16.9663 34.5859 16.2902 34.3643 15.6754C34.1673 15.0607 33.8595 14.532 33.4409 14.0894C33.0222 13.6223 32.4928 13.2657 31.8525 13.0198C31.2369 12.7494 30.5105 12.6141 29.6732 12.6141C28.8606 12.6141 28.1095 12.7739 27.42 13.0936C26.7551 13.3887 26.1887 13.7821 25.7209 14.2739C25.253 14.7656 24.8836 15.3189 24.6127 15.9336C24.3665 16.5237 24.2433 17.1139 24.2433 17.704H34.7337Z" fill="#0065FF"/>
<path d="M42.5152 0H45.8396V27.8838H42.5152V0Z" fill="#0065FF"/>
<path d="M51.2042 12.5403C52.14 11.6797 53.2235 11.0404 54.4548 10.6224C55.686 10.1798 56.9173 9.95851 58.1485 9.95851C59.429 9.95851 60.5249 10.1183 61.436 10.438C62.3718 10.7576 63.1351 11.188 63.7261 11.7289C64.3171 12.2699 64.7481 12.8969 65.019 13.61C65.3145 14.2985 65.4622 15.0238 65.4622 15.7861V24.7119C65.4622 25.3266 65.4745 25.8921 65.4992 26.4085C65.5238 26.9249 65.5607 27.4166 65.61 27.8838H62.6549C62.5811 26.9986 62.5441 26.1134 62.5441 25.2282H62.4703C61.7315 26.3593 60.8573 27.1585 59.8477 27.6256C58.838 28.0928 57.6683 28.3264 56.3386 28.3264C55.5259 28.3264 54.7503 28.2158 54.0115 27.9945C53.2727 27.7732 52.6202 27.4412 52.0538 26.9986C51.512 26.556 51.0811 26.0151 50.761 25.3758C50.4408 24.7119 50.2808 23.9496 50.2808 23.089C50.2808 21.9579 50.527 21.0112 51.0195 20.249C51.5367 19.4867 52.2262 18.872 53.088 18.4048C53.9746 17.913 54.9965 17.5688 56.1539 17.3721C57.3359 17.1508 58.5918 17.0401 59.9216 17.0401H62.3594V16.3025C62.3594 15.8598 62.2733 15.4172 62.1009 14.9746C61.9285 14.532 61.6699 14.1386 61.3252 13.7944C60.9804 13.4255 60.5495 13.1428 60.0324 12.9461C59.5152 12.7248 58.8996 12.6141 58.1855 12.6141C57.5452 12.6141 56.9788 12.6756 56.4863 12.7985C56.0185 12.9215 55.5875 13.0813 55.1935 13.278C54.7995 13.4501 54.4424 13.6591 54.1223 13.905C53.8022 14.1509 53.4944 14.3845 53.1989 14.6058L51.2042 12.5403ZM60.5864 19.4744C59.7984 19.4744 58.9858 19.5236 58.1485 19.622C57.3359 19.6957 56.5848 19.8555 55.8953 20.1014C55.2304 20.3473 54.6764 20.6916 54.2331 21.1342C53.8145 21.5768 53.6052 22.1423 53.6052 22.8308C53.6052 23.839 53.9376 24.5643 54.6025 25.0069C55.292 25.4495 56.2155 25.6708 57.3728 25.6708C58.284 25.6708 59.0597 25.5233 59.6999 25.2282C60.3402 24.9086 60.8573 24.5029 61.2513 24.0111C61.6453 23.5193 61.9285 22.9783 62.1009 22.3882C62.2733 21.7735 62.3594 21.1711 62.3594 20.5809V19.4744H60.5864Z" fill="#0065FF"/>
<path d="M101.018 10.4011H104.342V13.0936H104.416C104.835 12.1592 105.561 11.4093 106.596 10.8437C107.63 10.2536 108.824 9.95851 110.179 9.95851C111.016 9.95851 111.816 10.0937 112.58 10.3642C113.368 10.6101 114.045 11.0035 114.611 11.5445C115.202 12.0854 115.67 12.7862 116.015 13.6468C116.36 14.4829 116.532 15.4787 116.532 16.6344V27.8838H113.208V17.5565C113.208 16.745 113.097 16.0566 112.875 15.491C112.654 14.9009 112.358 14.4337 111.989 14.0894C111.619 13.7206 111.188 13.4624 110.696 13.3149C110.228 13.1428 109.735 13.0567 109.218 13.0567C108.529 13.0567 107.889 13.1674 107.298 13.3887C106.707 13.61 106.189 13.9665 105.746 14.4583C105.303 14.9255 104.958 15.5279 104.712 16.2656C104.466 17.0032 104.342 17.8761 104.342 18.8843V27.8838H101.018V10.4011Z" fill="#0065FF"/>
<path d="M124.055 20.3596C124.055 21.1219 124.215 21.8227 124.535 22.462C124.88 23.0767 125.323 23.6054 125.865 24.048C126.407 24.4906 127.035 24.8348 127.749 25.0807C128.463 25.3266 129.202 25.4495 129.965 25.4495C130.999 25.4495 131.898 25.2159 132.661 24.7487C133.425 24.257 134.127 23.6177 134.767 22.8308L137.279 24.7487C135.432 27.1339 132.846 28.3264 129.522 28.3264C128.143 28.3264 126.887 28.0928 125.754 27.6256C124.646 27.1585 123.698 26.5191 122.91 25.7077C122.146 24.8717 121.555 23.9004 121.137 22.7939C120.718 21.6628 120.509 20.4457 120.509 19.1425C120.509 17.8393 120.73 16.6344 121.174 15.5279C121.642 14.3968 122.27 13.4255 123.058 12.6141C123.87 11.7781 124.831 11.1265 125.939 10.6593C127.047 10.1921 128.253 9.95851 129.559 9.95851C131.11 9.95851 132.415 10.229 133.474 10.7699C134.558 11.3109 135.444 12.024 136.134 12.9092C136.823 13.7698 137.316 14.7533 137.611 15.8598C137.931 16.9418 138.091 18.0483 138.091 19.1794V20.3596H124.055ZM134.545 17.704C134.521 16.9663 134.397 16.2902 134.176 15.6754C133.979 15.0607 133.671 14.532 133.252 14.0894C132.834 13.6223 132.304 13.2657 131.664 13.0198C131.048 12.7494 130.322 12.6141 129.485 12.6141C128.672 12.6141 127.921 12.7739 127.232 13.0936C126.567 13.3887 126 13.7821 125.532 14.2739C125.065 14.7656 124.695 15.3189 124.424 15.9336C124.178 16.5237 124.055 17.1139 124.055 17.704H134.545Z" fill="#0065FF"/>
<path d="M91.0889 13.4653C91.0889 19.5897 86.4788 24.5544 80.7919 24.5544C75.105 24.5544 70.4949 19.5897 70.4949 13.4653C70.4949 7.34098 75.105 2.37622 80.7919 2.37622C86.4788 2.37622 91.0889 7.34098 91.0889 13.4653Z" fill="#FFC400"/>
<path d="M95.2697 29.3776C89.6064 25.9052 81.6598 25.5602 79.0042 24.3983C76.3486 23.2365 72.5312 25.0622 77.0125 27.2199C81.4938 29.3776 87.9151 29.2687 93.1121 31.8672C98.0913 34.3568 99.0872 40 99.0872 40H102.407C102.407 40 100.933 32.8499 95.2697 29.3776Z" fill="#0065FF"/>
<path d="M65.0621 39.8634C65.0621 39.8634 66.5357 32.7133 72.199 29.241C73.5427 28.4172 74.5169 27.9353 76.0164 27.4109C76.0164 27.4109 77.3094 28.056 78.1741 28.3816C79.6854 28.9507 82.1802 29.407 82.1802 29.407C79.3641 29.9744 76.9562 30.4309 74.3567 31.7306C69.3774 34.2202 68.3816 39.8634 68.3816 39.8634H65.0621Z" fill="#0065FF"/>
<path fill-rule="evenodd" clip-rule="evenodd" d="M90.5388 26.5322C91.4234 25.9811 92.2196 25.3374 92.9274 24.6011C94.1341 23.3717 95.0698 21.921 95.7347 20.2489C96.4242 18.5769 96.769 16.7696 96.769 14.8271C96.769 12.8845 96.4242 11.0772 95.7347 9.4052C95.0698 7.73315 94.1341 6.28241 92.9274 5.05296C91.7454 3.82352 90.3172 2.86455 88.6427 2.17606C86.9681 1.46298 85.1336 1.10645 83.1389 1.10645C81.1443 1.10645 79.3097 1.46298 77.6352 2.17606C75.9607 2.86455 74.5201 3.82352 73.3135 5.05296C72.1314 6.28241 71.1957 7.73315 70.5062 9.4052C69.8413 11.0772 69.5089 12.8845 69.5089 14.8271C69.5089 16.7696 69.8413 18.5769 70.5062 20.2489C71.1957 21.921 72.1314 23.3717 73.3135 24.6011C74.2162 25.521 75.25 26.2963 76.4147 26.9271L81.9438 25.1679C80.9096 25.0607 79.9536 24.8103 79.0758 24.4167C77.8691 23.8512 76.8349 23.1012 75.973 22.1668C75.1111 21.2325 74.4462 20.1383 73.9783 18.8842C73.5105 17.6056 73.2765 16.2532 73.2765 14.8271C73.2765 13.4009 73.5105 12.0608 73.9783 10.8068C74.4462 9.52814 75.1111 8.42164 75.973 7.48726C76.8349 6.55289 77.8691 5.81522 79.0758 5.27426C80.2824 4.70872 81.6368 4.42595 83.1389 4.42595C84.6411 4.42595 85.9954 4.70872 87.2021 5.27426C88.4087 5.81522 89.443 6.55289 90.3049 7.48726C91.1667 8.42164 91.8316 9.52814 92.2995 10.8068C92.7674 12.0608 93.0013 13.4009 93.0013 14.8271C93.0013 16.2532 92.7674 17.6056 92.2995 18.8842C91.8316 20.1383 91.1667 21.2325 90.3049 22.1668C89.443 23.1012 88.4087 23.8512 87.2021 24.4167C86.5053 24.7291 85.7592 24.9513 84.9638 25.0833C85.9479 25.2972 87.1335 25.56 87.8008 25.726C88.6711 25.9426 89.8454 26.3093 90.5388 26.5322Z" fill="#0065FF"/>
</svg>

